Coordinates
version=1
nRows=4
nColumns=107
inDegrees=yes

Units are S.I. units (second, meters, Newtons, ...)
If the header above contains a line with 'inDegrees', this indicates whether rotational values are in degrees (yes) or radians (no).

endheader
time	sternoclavicular_r2	sternoclavicular_r3	unrotscap_r3	unrotscap_r2	acromioclavicular_r2	acromioclavicular_r3	acromioclavicular_r1	unrothum_r1	unrothum_r3	unrothum_r2	elv_angle	shoulder_elv	shoulder1_r2	shoulder_rot	elbow_flexion	pro_sup	deviation	flexion	proximal_distal_r1	proximal_distal_r3	cmc_flexion	cmc_abduction	mp_flexion	ip_flexion	mcp2_flexion	mcp2_abduction	pm2_flexion	md2_flexion	mcp3_flexion	mcp3_abduction	pm3_flexion	md3_flexion	mcp4_flexion	mcp4_abduction	pm4_flexion	md4_flexion	mcp5_flexion	mcp5_abduction	pm5_flexion	md5_flexion	bicpt_tx	bicpt_ty	bicpt_tz	bicpt2_tx	bicpt2_ty	bicpt2_tz	ptpt_tx	ptpt_ty	ptpt_tz	FCUpt_tx	FCUpt_ty	FCUpt_tz	EDCpt_tx	EDCpt_ty	EDCpt_tz	APLpt_tx	APLpt_ty	APLpt_tz	FPLpt_tx	FPLpt_ty	FPLpt_tz	FPLpt2_tx	FPLpt2_ty	FPLpt2_tz	PEC1pt2_tx	PEC1pt2_ty	PEC1pt2_tz	PEC1pt3_tx	PEC1pt3_ty	PEC1pt3_tz	PEC2pt2_tx	PEC2pt2_ty	PEC2pt2_tz	PEC2pt3_tx	PEC2pt3_ty	PEC2pt3_tz	PEC3pt2_tx	PEC3pt2_ty	PEC3pt2_tz	PEC3pt3_tx	PEC3pt3_ty	PEC3pt3_tz	DELT2pt2a_tx	DELT2pt2a_ty	DELT2pt2a_tz	DELT2pt2_tx	DELT2pt2_ty	DELT2pt2_tz	LAT1pt2_tx	LAT1pt2_ty	LAT1pt2_tz	LAT1pt3_tx	LAT1pt3_ty	LAT1pt3_tz	LAT2pt2_tx	LAT2pt2_ty	LAT2pt2_tz	LAT2pt3_tx	LAT2pt3_ty	LAT2pt3_tz	LAT3pt2_tx	LAT3pt2_ty	LAT3pt2_tz	LAT3pt3_tx	LAT3pt3_ty	LAT3pt3_tz
      0.40000000	     -0.32669880	      0.13837419	     -0.13837419	      0.32669880	     -0.06614986	      0.53459991	      0.24029898	     -0.24029898	     -0.53459991	      0.06614986	     98.65353021	     77.34884502	     -1.72182892	    -19.94600104	     29.16720068	     42.68444692	      0.11479695	     -0.09449633	      0.14500911	     -0.04724816	     34.21427246	    -14.75694915	      5.51036441	     10.16012157	    -11.33825562	     10.78293527	     13.55370697	    -25.27984567	     -7.89998510	     -0.50029534	      6.13201407	     10.76739569	     -8.07987112	     -3.56787751	    -15.00720728	     22.06004514	    -22.41293627	    -13.96751550	     -0.41621593	      4.94788095	      0.00086476	     -0.03094301	     -0.00483847	      0.01657118	     -0.01812341	     -0.00717841	      0.00439610	     -0.06693936	     -0.00348846	      0.00805162	     -0.18343820	     -0.00040276	     -0.00512212	      0.00149056	      0.00012520	      0.00008922	      0.00003569	      0.00017843	      0.00011420	      0.00034259	      0.00019271	     -0.00001245	     -0.00020502	     -0.00024602	      0.00253533	      0.00889512	      0.00618791	     -0.00829352	      0.02002477	     -0.01899345	      0.00253533	      0.00889512	      0.00618791	      0.00055863	      0.01856374	     -0.00975456	      0.00399242	      0.00494647	      0.01607535	      0.00000000	      0.00800300	      0.00000000	     -0.00726220	     -0.03356083	     -0.00660006	      0.01374510	     -0.00043028	     -0.00327944	     -0.00090240	      0.01512601	     -0.00618791	      0.00249235	      0.02182958	     -0.01804808	     -0.00605900	      0.01310634	     -0.00554334	     -0.01263366	      0.02767372	     -0.03098254	     -0.02372033	      0.01465332	     -0.00743409	     -0.01572761	      0.03197088	     -0.03871743
      0.43333333	     -0.32812701	      0.13897912	     -0.13897912	      0.32812701	     -0.06643905	      0.53693699	      0.24134948	     -0.24134948	     -0.53693699	      0.06643905	     98.33881351	     77.68698656	     -1.71633608	    -18.53188321	     29.32845188	     41.49557646	      0.13594525	     -0.03874261	      0.16937022	     -0.01937130	     33.76917559	    -14.26077900	      5.24431242	     13.03226012	    -11.59366708	     10.76653813	     13.07579436	    -25.15402845	     -8.95393857	     -0.51374082	      6.36820773	      9.57692194	     -9.78352919	     -3.55415604	    -12.50263810	     18.55424168	    -22.43216270	    -13.94029346	     -2.52274333	      5.08557787	      0.00087009	     -0.03096149	     -0.00484145	      0.01657464	     -0.01816722	     -0.00730881	      0.00448395	     -0.06688256	     -0.00339269	      0.00793116	     -0.18346363	     -0.00039619	     -0.00497946	      0.00144143	      0.00013508	      0.00003838	      0.00001535	      0.00007676	      0.00004913	      0.00014739	      0.00008291	     -0.00001222	     -0.00021070	     -0.00025284	      0.00254641	      0.00893401	      0.00621496	     -0.00832978	      0.02011231	     -0.01907649	      0.00254641	      0.00893401	      0.00621496	      0.00056107	      0.01864489	     -0.00979720	      0.00400506	      0.00496809	      0.01610556	      0.00000000	      0.00807365	      0.00000000	     -0.00729395	     -0.03370755	     -0.00665869	      0.01291466	     -0.00038728	     -0.00280576	     -0.00090635	      0.01519213	     -0.00621496	      0.00250325	      0.02192501	     -0.01812698	     -0.00608549	      0.01316364	     -0.00556757	     -0.01268889	      0.02779470	     -0.03111798	     -0.02382403	      0.01471738	     -0.00746659	     -0.01579637	      0.03211065	     -0.03888669
      0.46666667	     -0.32993950	      0.13974680	     -0.13974680	      0.32993950	     -0.06680604	      0.53990290	      0.24268264	     -0.24268264	     -0.53990290	      0.06680604	     98.00429559	     78.11610997	     -1.71049764	    -16.46530634	     29.18158241	     39.15360784	      0.14934132	     -0.03914744	      0.18442279	     -0.01957372	     32.99116500	    -13.91228371	      7.03438133	     11.94488972	    -11.12051608	     10.81382569	     13.56000605	    -26.49195641	     -8.78427546	     -0.50952406	      6.15785607	      9.85583187	     -9.63900274	     -3.65503742	    -13.19061095	     20.83991105	    -23.08675783	    -13.98869063	     -1.59934769	      5.02642676	      0.00086524	     -0.03094466	     -0.00483874	      0.01657201	     -0.01812732	     -0.00755988	      0.00465699	     -0.06677067	     -0.00320403	      0.00769513	     -0.18351257	     -0.00038014	     -0.00469842	      0.00134592	      0.00015230	      0.00003878	      0.00001551	      0.00007756	      0.00004964	      0.00014891	      0.00008376	     -0.00001172	     -0.00022010	     -0.00026412	      0.00256047	      0.00898336	      0.00624929	     -0.00837579	      0.02022341	     -0.01918186	      0.00256047	      0.00898336	      0.00624929	      0.00056417	      0.01874788	     -0.00985132	      0.00402103	      0.00499553	      0.01614351	      0.00000000	      0.00816376	      0.00000000	     -0.00733424	     -0.03389374	     -0.00673346	      0.01165299	     -0.00032594	     -0.00217251	     -0.00091136	      0.01527605	     -0.00624929	      0.00251708	      0.02204612	     -0.01822711	     -0.00611910	      0.01323635	     -0.00559833	     -0.01275898	      0.02794823	     -0.03128987	     -0.02395563	      0.01479868	     -0.00750783	     -0.01588362	      0.03228802	     -0.03910149
      0.50000000	     -0.32995715	      0.13975428	     -0.13975428	      0.32995715	     -0.06680961	      0.53993178	      0.24269562	     -0.24269562	     -0.53993178	      0.06680961	     97.99011814	     78.12028850	     -1.71025020	    -16.47128391	     29.17243407	     39.15227700	      0.14935902	     -0.03914310	      0.18444186	     -0.01957155	     32.99123820	    -13.91246733	      7.03417087	     11.94502295	    -11.11918471	     10.81366715	     13.56025768	    -26.49160822	     -8.78497408	     -0.51018951	      6.15796073	      9.85578949	     -9.64007067	     -3.65530171	    -13.19098188	     20.83961406	    -23.08698452	    -13.98906433	     -1.59981414	      5.02643635	      0.00086493	     -0.03094361	     -0.00483857	      0.01657200	     -0.01812483	     -0.00756002	      0.00465709	     -0.06677060	     -0.00320393	      0.00769500	     -0.18351260	     -0.00038013	     -0.00469826	      0.00134587	      0.00015231	      0.00003877	      0.00001551	      0.00007753	      0.00004962	      0.00014886	      0.00008373	     -0.00001172	     -0.00022010	     -0.00026412	      0.00256061	      0.00898384	      0.00624963	     -0.00837624	      0.02022449	     -0.01918289	      0.00256061	      0.00898384	      0.00624963	      0.00056420	      0.01874889	     -0.00985184	      0.00402118	      0.00499580	      0.01614388	      0.00000000	      0.00816464	      0.00000000	     -0.00733463	     -0.03389555	     -0.00673419	      0.01165672	     -0.00032612	     -0.00217424	     -0.00091140	      0.01527687	     -0.00624963	      0.00251721	      0.02204730	     -0.01822808	     -0.00611943	      0.01323706	     -0.00559863	     -0.01275966	      0.02794973	     -0.03129154	     -0.02395691	      0.01479947	     -0.00750823	     -0.01588447	      0.03228975	     -0.03910358
